<svg xmlns="http://www.w3.org/2000/svg" viewBox="0 0 1078 317" width="1078" height="317" role="img" aria-label="SavedScannerCard/Online layout wireframe">
  <title>SavedScannerCard/Online — layout wireframe (slots + tokens)</title>
  <rect width="1078" height="317" fill="#ffffff"/>
  <g>
    <rect x="0" y="0" width="1078" height="317" fill="none" fill-opacity="0" stroke="#5B6470" stroke-width="1" stroke-opacity="0.5"/>
  </g>
  <g>
    <rect x="0" y="0" width="1078" height="317" fill="none" fill-opacity="0" stroke="#2E7D6B" stroke-width="1" stroke-opacity="0.5"/>
  </g>
  <g>
    <rect x="0" y="0" width="1078" height="278" fill="#FBF8FF" fill-opacity="1" stroke="#8E6BA8" stroke-width="1.5" stroke-opacity="1"/>
    <text x="3" y="12" font-family="system-ui, sans-serif" font-size="9" fill="#8E6BA8">#FFFBF8FF</text>
  </g>
  <g>
    <path d="M73.5,42 H1004.5 A31.5,31.5 0 0 1 1036,73.5 V204.5 A31.5,31.5 0 0 1 1004.5,236 H73.5 A31.5,31.5 0 0 1 42,204.5 V73.5 A31.5,31.5 0 0 1 73.5,42 Z" fill="#EFEDF4" fill-opacity="1" stroke="#B0813B" stroke-width="1.5" stroke-opacity="1"/>
    <text x="45" y="54" font-family="system-ui, sans-serif" font-size="9" fill="#B0813B">#FFEFEDF4  pad 16.0dp</text>
  </g>
  <g>
    <rect x="42" y="42" width="994" height="194" fill="none" fill-opacity="0" stroke="#3B72A8" stroke-width="1" stroke-opacity="0.5"/>
  </g>
  <g>
    <rect x="84" y="84" width="910" height="110" fill="none" fill-opacity="0" stroke="#A85B6B" stroke-width="1" stroke-opacity="0.5"/>
  </g>
  <g>
    <rect x="84" y="84" width="402" height="110" fill="none" fill-opacity="0" stroke="#4F8A4A" stroke-width="1" stroke-opacity="0.5"/>
  </g>
  <g>
    <rect x="84" y="84" width="402" height="63" fill="none" fill-opacity="0" stroke="#7A7A33" stroke-width="1" stroke-opacity="0.5"/>
  </g>
  <g>
    <rect x="84" y="152" width="224" height="42" fill="none" fill-opacity="0" stroke="#7A7A33" stroke-width="1" stroke-opacity="0.5"/>
  </g>
  <g>
    <rect x="861" y="118" width="133" height="42" fill="none" fill-opacity="0" stroke="#4F8A4A" stroke-width="1" stroke-opacity="0.5"/>
  </g>
  <g>
    <path d="M873.99375,126 H874.00625 A12.99375,12.99375 0 0 1 887,138.99375 V139.00625 A12.99375,12.99375 0 0 1 874.00625,152 H873.99375 A12.99375,12.99375 0 0 1 861,139.00625 V138.99375 A12.99375,12.99375 0 0 1 873.99375,126 Z" fill="#4355B9" fill-opacity="1" stroke="#7A7A33" stroke-width="1.5" stroke-opacity="1"/>
    <text x="864" y="138" font-family="system-ui, sans-serif" font-size="9" fill="#7A7A33">#FF4355B9</text>
  </g>
  <g>
    <rect x="898" y="118" width="96" height="42" fill="none" fill-opacity="0" stroke="#7A7A33" stroke-width="1" stroke-opacity="0.5"/>
  </g>
</svg>
