<svg xmlns="http://www.w3.org/2000/svg" viewBox="0 0 1076 2396" width="1076" height="2396" role="img" aria-label="ScannerDetail/Scanning layout wireframe">
  <title>ScannerDetail/Scanning — layout wireframe (slots + tokens)</title>
  <rect width="1076" height="2396" fill="#ffffff"/>
  <g>
    <rect x="0" y="0" width="1076" height="2396" fill="none" fill-opacity="0" stroke="#5B6470" stroke-width="1" stroke-opacity="0.5"/>
  </g>
  <g>
    <rect x="0" y="0" width="1076" height="2396" fill="none" fill-opacity="0" stroke="#2E7D6B" stroke-width="1" stroke-opacity="0.5"/>
  </g>
  <g>
    <rect x="0" y="0" width="1076" height="2396" fill="#FBF8FF" fill-opacity="1" stroke="#8E6BA8" stroke-width="1.5" stroke-opacity="1"/>
    <text x="3" y="12" font-family="system-ui, sans-serif" font-size="9" fill="#8E6BA8">#FFFBF8FF</text>
  </g>
  <g>
    <rect x="42" y="42" width="992" height="2312" fill="none" fill-opacity="0" stroke="#B0813B" stroke-width="1" stroke-opacity="0.5"/>
  </g>
  <g>
    <rect x="42" y="42" width="589" height="131" fill="none" fill-opacity="0" stroke="#3B72A8" stroke-width="1" stroke-opacity="0.5"/>
  </g>
  <g>
    <rect x="42" y="42" width="589" height="84" fill="none" fill-opacity="0" stroke="#A85B6B" stroke-width="1" stroke-opacity="0.5"/>
  </g>
  <g>
    <rect x="42" y="131" width="533" height="42" fill="none" fill-opacity="0" stroke="#A85B6B" stroke-width="1" stroke-opacity="0.5"/>
  </g>
  <g>
    <rect x="42" y="131" width="133" height="42" fill="none" fill-opacity="0" stroke="#4F8A4A" stroke-width="1" stroke-opacity="0.5"/>
  </g>
  <g>
    <path d="M54.99375,139 H55.00625 A12.99375,12.99375 0 0 1 68,151.99375 V152.00625 A12.99375,12.99375 0 0 1 55.00625,165 H54.99375 A12.99375,12.99375 0 0 1 42,152.00625 V151.99375 A12.99375,12.99375 0 0 1 54.99375,139 Z" fill="#4355B9" fill-opacity="1" stroke="#7A7A33" stroke-width="1.5" stroke-opacity="1"/>
    <text x="45" y="151" font-family="system-ui, sans-serif" font-size="9" fill="#7A7A33">#FF4355B9</text>
  </g>
  <g>
    <rect x="79" y="131" width="96" height="42" fill="none" fill-opacity="0" stroke="#7A7A33" stroke-width="1" stroke-opacity="0.5"/>
  </g>
  <g>
    <rect x="207" y="131" width="368" height="42" fill="none" fill-opacity="0" stroke="#4F8A4A" stroke-width="1" stroke-opacity="0.5"/>
  </g>
  <g>
    <path d="M73.5,205 H1002.5 A31.5,31.5 0 0 1 1034,236.5 V1213.5 A31.5,31.5 0 0 1 1002.5,1245 H73.5 A31.5,31.5 0 0 1 42,1213.5 V236.5 A31.5,31.5 0 0 1 73.5,205 Z" fill="#EFEDF4" fill-opacity="1" stroke="#3B72A8" stroke-width="1.5" stroke-opacity="1"/>
    <text x="45" y="217" font-family="system-ui, sans-serif" font-size="9" fill="#3B72A8">#FFEFEDF4</text>
  </g>
  <g>
    <rect x="42" y="205" width="992" height="1040" fill="none" fill-opacity="0" stroke="#A85B6B" stroke-width="1" stroke-opacity="0.5"/>
  </g>
  <g>
    <rect x="84" y="247" width="908" height="956" fill="none" fill-opacity="0" stroke="#4F8A4A" stroke-width="1" stroke-opacity="0.5"/>
  </g>
  <g>
    <rect x="84" y="268" width="129" height="53" fill="none" fill-opacity="0" stroke="#7A7A33" stroke-width="1" stroke-opacity="0.5"/>
  </g>
  <g>
    <path d="M115.5,364 H960.5 A31.5,31.5 0 0 1 992,395.5 V1013.5 A31.5,31.5 0 0 1 960.5,1045 H115.5 A31.5,31.5 0 0 1 84,1013.5 V395.5 A31.5,31.5 0 0 1 115.5,364 Z" fill="#E3E1E9" fill-opacity="1" stroke="#7A7A33" stroke-width="1.5" stroke-opacity="1"/>
    <text x="87" y="376" font-family="system-ui, sans-serif" font-size="9" fill="#7A7A33">#FFE3E1E9</text>
  </g>
  <g>
    <rect x="446" y="678" width="185" height="53" fill="none" fill-opacity="0" stroke="#5B6470" stroke-width="1" stroke-opacity="0.5"/>
  </g>
  <g>
    <rect x="84" y="1077" width="908" height="126" fill="none" fill-opacity="0" stroke="#7A7A33" stroke-width="1" stroke-opacity="0.5"/>
  </g>
  <g>
    <rect x="84" y="1114" width="157" height="53" fill="none" fill-opacity="0" stroke="#5B6470" stroke-width="1" stroke-opacity="0.5"/>
  </g>
  <g>
    <path d="M314.5,1088 H411.5 A52.5,52.5 0 0 1 464,1140.5 V1140.5 A52.5,52.5 0 0 1 411.5,1193 H314.5 A52.5,52.5 0 0 1 262,1140.5 V1140.5 A52.5,52.5 0 0 1 314.5,1088 Z" fill="#DFE1F9" fill-opacity="1" stroke="#5B6470" stroke-width="1.5" stroke-opacity="1"/>
    <text x="265" y="1100" font-family="system-ui, sans-serif" font-size="9" fill="#5B6470">#FFDFE1F9</text>
  </g>
  <g>
    <rect x="325" y="1109" width="76" height="63" fill="none" fill-opacity="0" stroke="#2E7D6B" stroke-width="1" stroke-opacity="0.5"/>
  </g>
  <g>
    <rect x="325" y="1114" width="76" height="53" fill="none" fill-opacity="0" stroke="#8E6BA8" stroke-width="1" stroke-opacity="0.5"/>
  </g>
  <g>
    <path d="M537.5,1088 H634.5 A52.5,52.5 0 0 1 687,1140.5 V1140.5 A52.5,52.5 0 0 1 634.5,1193 H537.5 A52.5,52.5 0 0 1 485,1140.5 V1140.5 A52.5,52.5 0 0 1 537.5,1088 Z" fill="#DFE1F9" fill-opacity="1" stroke="#5B6470" stroke-width="1.5" stroke-opacity="1"/>
    <text x="488" y="1100" font-family="system-ui, sans-serif" font-size="9" fill="#5B6470">#FFDFE1F9</text>
  </g>
  <g>
    <rect x="548" y="1109" width="76" height="63" fill="none" fill-opacity="0" stroke="#2E7D6B" stroke-width="1" stroke-opacity="0.5"/>
  </g>
  <g>
    <rect x="548" y="1114" width="76" height="53" fill="none" fill-opacity="0" stroke="#8E6BA8" stroke-width="1" stroke-opacity="0.5"/>
  </g>
  <g>
    <path d="M73.5,1277 H1002.5 A31.5,31.5 0 0 1 1034,1308.5 V1700.5 A31.5,31.5 0 0 1 1002.5,1732 H73.5 A31.5,31.5 0 0 1 42,1700.5 V1308.5 A31.5,31.5 0 0 1 73.5,1277 Z" fill="#EFEDF4" fill-opacity="1" stroke="#3B72A8" stroke-width="1.5" stroke-opacity="1"/>
    <text x="45" y="1289" font-family="system-ui, sans-serif" font-size="9" fill="#3B72A8">#FFEFEDF4</text>
  </g>
  <g>
    <rect x="42" y="1277" width="992" height="455" fill="none" fill-opacity="0" stroke="#A85B6B" stroke-width="1" stroke-opacity="0.5"/>
  </g>
  <g>
    <rect x="84" y="1319" width="908" height="371" fill="none" fill-opacity="0" stroke="#4F8A4A" stroke-width="1" stroke-opacity="0.5"/>
  </g>
  <g>
    <rect x="84" y="1340" width="83" height="53" fill="none" fill-opacity="0" stroke="#7A7A33" stroke-width="1" stroke-opacity="0.5"/>
  </g>
  <g>
    <rect x="84" y="1436" width="288" height="53" fill="none" fill-opacity="0" stroke="#7A7A33" stroke-width="1" stroke-opacity="0.5"/>
  </g>
  <g>
    <rect x="84" y="1521" width="908" height="11" fill="none" fill-opacity="0" stroke="#7A7A33" stroke-width="1" stroke-opacity="0.5"/>
  </g>
  <g>
    <path d="M136.5,1575 H939.5 A52.5,52.5 0 0 1 992,1627.5 V1627.5 A52.5,52.5 0 0 1 939.5,1680 H136.5 A52.5,52.5 0 0 1 84,1627.5 V1627.5 A52.5,52.5 0 0 1 136.5,1575 Z" fill="#4355B9" fill-opacity="1" stroke="#7A7A33" stroke-width="1.5" stroke-opacity="1"/>
    <text x="87" y="1587" font-family="system-ui, sans-serif" font-size="9" fill="#7A7A33">#FF4355B9</text>
  </g>
  <g>
    <rect x="147" y="1596" width="782" height="63" fill="none" fill-opacity="0" stroke="#5B6470" stroke-width="1" stroke-opacity="0.5"/>
  </g>
  <g>
    <rect x="456" y="1601" width="165" height="53" fill="none" fill-opacity="0" stroke="#2E7D6B" stroke-width="1" stroke-opacity="0.5"/>
  </g>
  <g>
    <path d="M94.5,1775 H981.5 A52.5,52.5 0 0 1 1034,1827.5 V1827.5 A52.5,52.5 0 0 1 981.5,1880 H94.5 A52.5,52.5 0 0 1 42,1827.5 V1827.5 A52.5,52.5 0 0 1 94.5,1775 Z" fill="none" fill-opacity="0" stroke="#C7C5D0" stroke-width="1.5" stroke-opacity="1"/>
    <text x="45" y="1787" font-family="system-ui, sans-serif" font-size="9" fill="#C7C5D0">◻ #FFC7C5D0</text>
  </g>
  <g>
    <rect x="105" y="1796" width="866" height="63" fill="none" fill-opacity="0" stroke="#A85B6B" stroke-width="1" stroke-opacity="0.5"/>
  </g>
  <g>
    <rect x="348" y="1801" width="380" height="53" fill="none" fill-opacity="0" stroke="#4F8A4A" stroke-width="1" stroke-opacity="0.5"/>
  </g>
</svg>
