<svg xmlns="http://www.w3.org/2000/svg" viewBox="0 0 1076 2396" width="1076" height="2396" role="img" aria-label="ScannerList/Populated layout wireframe">
  <title>ScannerList/Populated — layout wireframe (slots + tokens)</title>
  <rect width="1076" height="2396" fill="#ffffff"/>
  <g>
    <rect x="0" y="0" width="1076" height="2396" fill="none" fill-opacity="0" stroke="#5B6470" stroke-width="1" stroke-opacity="0.5"/>
  </g>
  <g>
    <rect x="0" y="0" width="1076" height="2396" fill="none" fill-opacity="0" stroke="#2E7D6B" stroke-width="1" stroke-opacity="0.5"/>
  </g>
  <g>
    <rect x="0" y="0" width="1076" height="2396" fill="#FBF8FF" fill-opacity="1" stroke="#8E6BA8" stroke-width="1.5" stroke-opacity="1"/>
    <text x="3" y="12" font-family="system-ui, sans-serif" font-size="9" fill="#8E6BA8">#FFFBF8FF</text>
  </g>
  <g>
    <rect x="42" y="0" width="992" height="2396" fill="none" fill-opacity="0" stroke="#B0813B" stroke-width="1" stroke-opacity="0.5"/>
  </g>
  <g>
    <rect x="42" y="63" width="261" height="53" fill="none" fill-opacity="0" stroke="#3B72A8" stroke-width="1" stroke-opacity="0.5"/>
  </g>
  <g>
    <path d="M73.5,159 H1002.5 A31.5,31.5 0 0 1 1034,190.5 V321.5 A31.5,31.5 0 0 1 1002.5,353 H73.5 A31.5,31.5 0 0 1 42,321.5 V190.5 A31.5,31.5 0 0 1 73.5,159 Z" fill="#EFEDF4" fill-opacity="1" stroke="#3B72A8" stroke-width="1.5" stroke-opacity="1"/>
    <text x="45" y="171" font-family="system-ui, sans-serif" font-size="9" fill="#3B72A8">#FFEFEDF4</text>
  </g>
  <g>
    <rect x="42" y="159" width="992" height="194" fill="none" fill-opacity="0" stroke="#A85B6B" stroke-width="1" stroke-opacity="0.5"/>
  </g>
  <g>
    <rect x="84" y="201" width="908" height="110" fill="none" fill-opacity="0" stroke="#4F8A4A" stroke-width="1" stroke-opacity="0.5"/>
  </g>
  <g>
    <rect x="84" y="201" width="402" height="110" fill="none" fill-opacity="0" stroke="#7A7A33" stroke-width="1" stroke-opacity="0.5"/>
  </g>
  <g>
    <rect x="84" y="201" width="402" height="63" fill="none" fill-opacity="0" stroke="#5B6470" stroke-width="1" stroke-opacity="0.5"/>
  </g>
  <g>
    <rect x="84" y="269" width="224" height="42" fill="none" fill-opacity="0" stroke="#5B6470" stroke-width="1" stroke-opacity="0.5"/>
  </g>
  <g>
    <rect x="859" y="235" width="133" height="42" fill="none" fill-opacity="0" stroke="#7A7A33" stroke-width="1" stroke-opacity="0.5"/>
  </g>
  <g>
    <path d="M871.99375,243 H872.00625 A12.99375,12.99375 0 0 1 885,255.99375 V256.00625 A12.99375,12.99375 0 0 1 872.00625,269 H871.99375 A12.99375,12.99375 0 0 1 859,256.00625 V255.99375 A12.99375,12.99375 0 0 1 871.99375,243 Z" fill="#4355B9" fill-opacity="1" stroke="#5B6470" stroke-width="1.5" stroke-opacity="1"/>
    <text x="862" y="255" font-family="system-ui, sans-serif" font-size="9" fill="#5B6470">#FF4355B9</text>
  </g>
  <g>
    <rect x="896" y="235" width="96" height="42" fill="none" fill-opacity="0" stroke="#5B6470" stroke-width="1" stroke-opacity="0.5"/>
  </g>
  <g>
    <path d="M73.5,385 H1002.5 A31.5,31.5 0 0 1 1034,416.5 V547.5 A31.5,31.5 0 0 1 1002.5,579 H73.5 A31.5,31.5 0 0 1 42,547.5 V416.5 A31.5,31.5 0 0 1 73.5,385 Z" fill="#EFEDF4" fill-opacity="1" stroke="#3B72A8" stroke-width="1.5" stroke-opacity="1"/>
    <text x="45" y="397" font-family="system-ui, sans-serif" font-size="9" fill="#3B72A8">#FFEFEDF4</text>
  </g>
  <g>
    <rect x="42" y="385" width="992" height="194" fill="none" fill-opacity="0" stroke="#A85B6B" stroke-width="1" stroke-opacity="0.5"/>
  </g>
  <g>
    <rect x="84" y="427" width="908" height="110" fill="none" fill-opacity="0" stroke="#4F8A4A" stroke-width="1" stroke-opacity="0.5"/>
  </g>
  <g>
    <rect x="84" y="427" width="235" height="110" fill="none" fill-opacity="0" stroke="#7A7A33" stroke-width="1" stroke-opacity="0.5"/>
  </g>
  <g>
    <rect x="84" y="427" width="235" height="63" fill="none" fill-opacity="0" stroke="#5B6470" stroke-width="1" stroke-opacity="0.5"/>
  </g>
  <g>
    <rect x="84" y="495" width="190" height="42" fill="none" fill-opacity="0" stroke="#5B6470" stroke-width="1" stroke-opacity="0.5"/>
  </g>
  <g>
    <rect x="853" y="461" width="139" height="42" fill="none" fill-opacity="0" stroke="#7A7A33" stroke-width="1" stroke-opacity="0.5"/>
  </g>
  <g>
    <path d="M865.99375,469 H866.00625 A12.99375,12.99375 0 0 1 879,481.99375 V482.00625 A12.99375,12.99375 0 0 1 866.00625,495 H865.99375 A12.99375,12.99375 0 0 1 853,482.00625 V481.99375 A12.99375,12.99375 0 0 1 865.99375,469 Z" fill="#BA1A1A" fill-opacity="1" stroke="#5B6470" stroke-width="1.5" stroke-opacity="1"/>
    <text x="856" y="481" font-family="system-ui, sans-serif" font-size="9" fill="#5B6470">#FFBA1A1A</text>
  </g>
  <g>
    <rect x="890" y="461" width="102" height="42" fill="none" fill-opacity="0" stroke="#5B6470" stroke-width="1" stroke-opacity="0.5"/>
  </g>
  <g>
    <rect x="42" y="632" width="271" height="53" fill="none" fill-opacity="0" stroke="#3B72A8" stroke-width="1" stroke-opacity="0.5"/>
  </g>
  <g>
    <path d="M73.5,728 H1002.5 A31.5,31.5 0 0 1 1034,759.5 V890.5 A31.5,31.5 0 0 1 1002.5,922 H73.5 A31.5,31.5 0 0 1 42,890.5 V759.5 A31.5,31.5 0 0 1 73.5,728 Z" fill="#F5F2FA" fill-opacity="1" stroke="#3B72A8" stroke-width="1.5" stroke-opacity="1"/>
    <text x="45" y="740" font-family="system-ui, sans-serif" font-size="9" fill="#3B72A8">#FFF5F2FA</text>
  </g>
  <g>
    <rect x="42" y="728" width="992" height="194" fill="none" fill-opacity="0" stroke="#A85B6B" stroke-width="1" stroke-opacity="0.5"/>
  </g>
  <g>
    <rect x="84" y="770" width="908" height="110" fill="none" fill-opacity="0" stroke="#4F8A4A" stroke-width="1" stroke-opacity="0.5"/>
  </g>
  <g>
    <rect x="84" y="770" width="353" height="110" fill="none" fill-opacity="0" stroke="#7A7A33" stroke-width="1" stroke-opacity="0.5"/>
  </g>
  <g>
    <rect x="84" y="770" width="353" height="63" fill="none" fill-opacity="0" stroke="#5B6470" stroke-width="1" stroke-opacity="0.5"/>
  </g>
  <g>
    <rect x="84" y="838" width="297" height="42" fill="none" fill-opacity="0" stroke="#5B6470" stroke-width="1" stroke-opacity="0.5"/>
  </g>
  <g>
    <rect x="926" y="799" width="66" height="53" fill="none" fill-opacity="0" stroke="#7A7A33" stroke-width="1" stroke-opacity="0.5"/>
  </g>
  <g>
    <path d="M73.5,954 H1002.5 A31.5,31.5 0 0 1 1034,985.5 V1116.5 A31.5,31.5 0 0 1 1002.5,1148 H73.5 A31.5,31.5 0 0 1 42,1116.5 V985.5 A31.5,31.5 0 0 1 73.5,954 Z" fill="#F5F2FA" fill-opacity="1" stroke="#3B72A8" stroke-width="1.5" stroke-opacity="1"/>
    <text x="45" y="966" font-family="system-ui, sans-serif" font-size="9" fill="#3B72A8">#FFF5F2FA</text>
  </g>
  <g>
    <rect x="42" y="954" width="992" height="194" fill="none" fill-opacity="0" stroke="#A85B6B" stroke-width="1" stroke-opacity="0.5"/>
  </g>
  <g>
    <rect x="84" y="996" width="908" height="110" fill="none" fill-opacity="0" stroke="#4F8A4A" stroke-width="1" stroke-opacity="0.5"/>
  </g>
  <g>
    <rect x="84" y="996" width="296" height="110" fill="none" fill-opacity="0" stroke="#7A7A33" stroke-width="1" stroke-opacity="0.5"/>
  </g>
  <g>
    <rect x="84" y="996" width="296" height="63" fill="none" fill-opacity="0" stroke="#5B6470" stroke-width="1" stroke-opacity="0.5"/>
  </g>
  <g>
    <rect x="84" y="1064" width="235" height="42" fill="none" fill-opacity="0" stroke="#5B6470" stroke-width="1" stroke-opacity="0.5"/>
  </g>
  <g>
    <rect x="926" y="1025" width="66" height="53" fill="none" fill-opacity="0" stroke="#7A7A33" stroke-width="1" stroke-opacity="0.5"/>
  </g>
  <g>
    <path d="M94.5,1212 H981.5 A52.5,52.5 0 0 1 1034,1264.5 V1264.5 A52.5,52.5 0 0 1 981.5,1317 H94.5 A52.5,52.5 0 0 1 42,1264.5 V1264.5 A52.5,52.5 0 0 1 94.5,1212 Z" fill="none" fill-opacity="0" stroke="#C7C5D0" stroke-width="1.5" stroke-opacity="1"/>
    <text x="45" y="1224" font-family="system-ui, sans-serif" font-size="9" fill="#C7C5D0">◻ #FFC7C5D0  pad ·</text>
  </g>
  <g>
    <rect x="105" y="1233" width="866" height="63" fill="none" fill-opacity="0" stroke="#A85B6B" stroke-width="1" stroke-opacity="0.5"/>
  </g>
  <g>
    <rect x="326" y="1238" width="425" height="53" fill="none" fill-opacity="0" stroke="#4F8A4A" stroke-width="1" stroke-opacity="0.5"/>
  </g>
</svg>
